#!OML:ASF \\Waltz\H\Terrain\Patient Classification 1\Animal2\Wednesday\Animal2.ASF
:FULLY-SPECIFIED
:DEGREES
2971
root 12.3979 17.0811 -20.8335 898.248 9.88932 -536.766
lowerback 2.08636 -2.48928 4.78234
upperback -3.44734 -2.89578 1.79572
thorax -4.89344 -1.5147 -0.631973
lowerneck 6.24437 9.03565 18.1437
upperneck 0.842337 14.0938 -19.8836
head 1.9584 7.48719 -8.83605
rclavicle 3.23522e-014 -2.38542e-014
rhumerus -52.7839 39.8034 -97.0022
rradius 47.7764
rwrist 38.5353
rhand 13.0539 30.9912
rfingers 7.12502
rthumb 38.0167 5.19653
lclavicle 3.23522e-014 -2.38542e-014
lhumerus -45.9563 -44.6844 102.565
lradius 58.023
lwrist -10.7358
lhand -9.63339 11.0262
lfingers 7.12502
lthumb 16.3367 40.3581
rfemur -1.46938 -11.0814 18.0226
rtibia 37.6358
rfoot -29.4744 -7.44943
rtoes 31.5995
lfemur -17.4463 13.892 -16.4784
ltibia 44.8774
lfoot -23.1794 -3.22146
ltoes -4.06675
2972
root 12.3799 17.1259 -20.8589 898.536 10.7537 -536.72
lowerback 1.9002 -2.58115 4.61515
upperback -3.44784 -3.03417 1.8553
thorax -4.78142 -1.57419 -0.477195
lowerneck 6.38325 9.07323 18.4101
upperneck 0.553347 14.1639 -20.2402
head 1.91406 7.53584 -9.00434
rclavicle -3.95581e-014 -7.15625e-015
rhumerus -52.9863 39.5836 -96.4342
rradius 47.4993
rwrist 39.096
rhand 13.2062 31.5191
rfingers 7.12502
rthumb 38.1606 5.7638
lclavicle -3.95581e-014 -7.15625e-015
lhumerus -45.2069 -45.2589 102.45
lradius 59.5878
lwrist -10.3137
lhand -9.70654 11.2764
lfingers 7.12502
lthumb 16.2662 40.614
rfemur -1.71192 -10.8719 18.0479
rtibia 37.2972
rfoot -28.6675 -7.35434
rtoes 32.2469
lfemur -17.0232 13.4733 -16.5766
ltibia 44.0044
lfoot -23.0019 -2.03507
ltoes -5.49966
2973
root 12.3544 17.1854 -20.8804 898.946 11.4644 -536.621
lowerback 1.6351 -2.71736 4.57218
upperback -3.43969 -3.2269 1.94769
thorax -4.62285 -1.66255 -0.35905
lowerneck 6.83126 9.28545 18.101
upperneck -0.159585 14.3811 -20.0977
head 1.64651 7.65904 -8.9333
rclavicle -4.71617e-014 -6.75868e-015
rhumerus -53.2166 39.599 -95.8108
rradius 47.4316
rwrist 39.2687
rhand 13.4457 31.4185
rfingers 7.12502
rthumb 38.3866 5.72551
lclavicle -4.71617e-014 -6.75868e-015
lhumerus -44.186 -45.6666 102.167
lradius 61.0099
lwrist -10.1757
lhand -9.65825 11.114
lfingers 7.12502
lthumb 16.3127 40.4479
rfemur -2.1746 -10.9079 18.0817
rtibia 37.0849
rfoot -27.5616 -7.60039
rtoes 31.4515
lfemur -16.7489 12.8447 -16.6906
ltibia 43.089
lfoot -22.8438 -1.2782
ltoes -4.05142
2974
root 12.3273 17.242 -20.8958 899.283 12.0004 -536.578
lowerback 1.63266 -2.94572 4.44304
upperback -3.44691 -3.5326 2.03316
thorax -4.6281 -1.80782 -0.180033
lowerneck 6.57783 9.48071 18.2364
upperneck -0.164946 14.6233 -20.274
head 1.76036 7.76842 -8.97373
rclavicle 1.63997e-015 3.02153e-014
rhumerus -53.3718 39.85 -95.3189
rradius 47.3359
rwrist 39.0608
rhand 13.593 30.9323
rfingers 7.12502
rthumb 38.5257 5.27805
lclavicle 1.63997e-015 3.02153e-014
lhumerus -43.0859 -46.0751 101.754
lradius 62.429
lwrist -9.92852
lhand -9.48699 11.2492
lfingers 7.12502
lthumb 16.4776 40.5694
rfemur -2.62102 -11.2089 18.0636
rtibia 36.9351
rfoot -26.4445 -8.54128
rtoes 28.7744
lfemur -16.4781 12.0088 -16.8729
ltibia 42.173
lfoot -22.6118 -0.684185
ltoes -1.89511
2975
root 12.3027 17.288 -20.9088 899.547 12.7113 -536.636
lowerback 1.83275 -3.15287 4.15732
upperback -3.58899 -3.79651 2.12092
thorax -4.87465 -1.92941 0.102615
lowerneck 6.55012 9.53184 18.6092
upperneck -0.110428 14.7579 -20.7195
head 1.87223 7.84557 -9.16382
rclavicle -4.56211e-014 5.56597e-015
rhumerus -53.7781 40.1905 -94.9947
rradius 47.2687
rwrist 38.7892
rhand 13.9059 30.8156
rfingers 7.12502
rthumb 38.8208 5.24445
lclavicle -4.56211e-014 5.56597e-015
lhumerus -42.4859 -46.5606 101.579
lradius 63.9897
lwrist -9.47713
lhand -9.58708 11.9265
lfingers 7.12502
lthumb 16.3812 41.2547
rfemur -3.03248 -11.3855 17.9448
rtibia 36.8536
rfoot -25.9535 -8.29017
rtoes 30.37
lfemur -16.1184 11.4327 -17.1333
ltibia 41.2606
lfoot -22.4118 0.473094
ltoes -3.40137
2976
root 12.2785 17.3365 -20.9218 899.765 13.4791 -536.465
lowerback 1.98994 -3.2941 4.14924
upperback -3.64403 -3.96759 2.20454
thorax -5.02122 -2.01266 0.217136
lowerneck 6.81952 9.58012 18.9708
upperneck -0.456914 14.8653 -21.1082
head 1.8112 7.92128 -9.36526
rclavicle -5.61567e-015 -9.93923e-015
rhumerus -54.1622 40.3297 -94.5217
rradius 47.3867
rwrist 38.619
rhand 14.3207 30.8935
rfingers 7.12502
rthumb 39.2118 5.43443
lclavicle -5.61567e-015 -9.93923e-015
lhumerus -41.8621 -47.2624 101.275
lradius 65.497
lwrist -8.89623
lhand -9.65952 12.3004
lfingers 7.12502
lthumb 16.3115 41.6343
rfemur -3.38166 -11.4398 18.0709
rtibia 36.8639
rfoot -25.3586 -7.77187
rtoes 33.1567
lfemur -15.6762 10.8008 -17.1156
ltibia 40.3931
lfoot -22.3055 1.4269
ltoes -3.20111
2977
root 12.2605 17.3794 -20.9279 899.81 13.9992 -536.256
lowerback 2.28665 -3.51208 4.12659
upperback -3.53576 -4.25066 2.26773
thorax -5.07876 -2.15278 0.329827
lowerneck 6.95423 9.78809 19.1439
upperneck -0.986996 15.0998 -21.2415
head 1.71336 8.04282 -9.43436
rclavicle 1.31198e-014 -2.14687e-014
rhumerus -54.18 40.3592 -93.7883
rradius 47.5664
rwrist 38.5225
rhand 14.992 31.1649
rfingers 7.12502
rthumb 39.8441 5.89202
lclavicle 1.31198e-014 -2.14687e-014
lhumerus -40.7801 -47.9259 100.518
lradius 66.7988
lwrist -8.47693
lhand -9.18353 12.0904
lfingers 7.12502
lthumb 16.7698 41.3861
rfemur -3.63846 -11.5466 18.2979
rtibia 37.0059
rfoot -24.4775 -8.06174
rtoes 33.6303
lfemur -15.0912 9.93774 -17.0136
ltibia 39.5569
lfoot -22.2047 2.48429
ltoes -4.39358
2978
root 12.2424 17.4119 -20.9294 899.979 14.595 -536.318
lowerback 2.51025 -3.69114 3.82946
upperback -3.53648 -4.49922 2.26745
thorax -5.18903 -2.26859 0.527231
lowerneck 7.24467 10.0451 19.2452
upperneck -1.56068 15.4043 -21.2031
head 1.5718 8.20101 -9.4412
rclavicle -4.96962e-016 3.26007e-014
rhumerus -54.267 40.4631 -93.1525
rradius 47.6155
rwrist 38.4303
rhand 15.4123 31.4565
rfingers 7.12502
rthumb 40.2396 6.30321
lclavicle -4.96962e-016 3.26007e-014
lhumerus -39.8728 -48.6305 99.8104
lradius 67.9617
lwrist -8.61184
lhand -9.40242 11.9031
lfingers 7.12502
lthumb 16.559 41.2166
rfemur -4.19605 -11.6295 18.2884
rtibia 37.2749
rfoot -23.784 -7.83463
rtoes 35.1051
lfemur -14.727 9.34968 -17.2424
ltibia 38.7505
lfoot -21.9027 3.89911
ltoes -8.64287
2979
root 12.2155 17.4526 -20.9298 900.444 15.4192 -536.359
lowerback 2.41459 -3.77623 3.653
upperback -3.59126 -4.62562 2.27143
thorax -5.17946 -2.32535 0.63361
lowerneck 7.75044 10.3622 19.1077
upperneck -2.26094 15.7768 -20.9164
head 1.33062 8.39603 -9.34443
rclavicle -2.25621e-014 -7.95139e-015
rhumerus -54.3715 40.7346 -92.6083
rradius 47.6309
rwrist 38.2355
rhand 15.1009 31.339
rfingers 7.12502
rthumb 39.9466 6.09683
lclavicle -2.25621e-014 -7.95139e-015
lhumerus -39.0704 -49.5393 99.1116
lradius 69.1567
lwrist -8.64708
lhand -10.2714 12.2761
lfingers 7.12502
lthumb 15.7223 41.6574
rfemur -5.17499 -11.7182 18.322
rtibia 37.6503
rfoot -22.7756 -7.55581
rtoes 35.7047
lfemur -14.7025 8.90293 -17.4966
ltibia 37.9679
lfoot -21.6831 4.30873
ltoes -5.71635
2980
root 12.1939 17.4967 -20.9312 900.823 16.1273 -536.294
lowerback 2.28981 -3.92755 3.53876
upperback -3.48443 -4.84878 2.29338
thorax -4.98864 -2.43221 0.720491
lowerneck 8.63389 10.8804 18.1792
upperneck -3.62577 16.2957 -20.0592
head 0.746651 8.6664 -8.98966
rclavicle 1.16786e-014 1.31198e-014
rhumerus -54.1881 41.0505 -91.9202
rradius 47.8548
rwrist 38.0982
rhand 15.0712 31.028
rfingers 7.12502
rthumb 39.9187 5.77742
lclavicle 1.16786e-014 1.31198e-014
lhumerus -37.8035 -50.462 97.8904
lradius 70.3801
lwrist -8.20756
lhand -10.4133 12.6864
lfingers 7.12502
lthumb 15.5856 42.0784
rfemur -6.06532 -11.8702 18.533
rtibia 38.1446
rfoot -22.019 -7.87872
rtoes 35.5618
lfemur -14.5651 8.38345 -17.5701
ltibia 37.1677
lfoot -21.6038 4.32134
ltoes 0.489109
2981
root 12.1794 17.5287 -20.9344 900.981 16.7123 -536.185
lowerback 2.47786 -4.07674 3.42744
upperback -3.4049 -5.05487 2.28669
thorax -5.00623 -2.53313 0.800245
lowerneck 8.51314 11.0448 18.3877
upperneck -3.79668 16.4842 -20.0696
head 0.774182 8.74704 -9.0022
rclavicle -9.03973e-014 -2.78299e-015
rhumerus -54.2781 41.2235 -91.3085
rradius 48.239
rwrist 37.9025
rhand 15.3464 30.8886
rfingers 7.12502
rthumb 40.1776 5.71637
lclavicle -9.03973e-014 -2.78299e-015
lhumerus -36.7216 -51.4891 96.7334
lradius 71.5032
lwrist -8.13683
lhand -10.5178 12.6389
lfingers 7.12502
lthumb 15.485 42.0388
rfemur -6.74124 -12.0578 18.848
rtibia 38.7053
rfoot -22.2985 -8.45977
rtoes 37.6256
lfemur -14.1721 7.95449 -17.5522
ltibia 36.3764
lfoot -21.5471 4.85929
ltoes 2.72695
